<svg id="visual" viewBox="0 0 900 600" width="900" height="600" xmlns="http://www.w3.org/2000/svg" xmlns:xlink="http://www.w3.org/1999/xlink" version="1.1"><rect x="0" y="0" width="900" height="600" fill="#010b8f"></rect><g transform="translate(450 300.1125)"><path d="M133.3 -158.9C170.3 -127.9 195.9 -83.5 204.3 -36C212.7 11.5 203.8 62 179.7 103.7C155.6 145.5 116.3 178.5 71 194.9C25.7 211.4 -25.7 211.4 -71 194.9C-116.3 178.5 -155.6 145.5 -179.7 103.7C-203.8 62 -212.7 11.5 -204.3 -36C-195.9 -83.5 -170.3 -127.9 -133.3 -158.9C-96.4 -189.9 -48.2 -207.5 0 -207.5C48.2 -207.5 96.4 -189.9 133.3 -158.9" fill="#c20495"></path></g></svg>